<?xml version="1.0" encoding="UTF-8" standalone="no"?>
<!DOCTYPE svg PUBLIC "-//W3C//DTD SVG 1.1//EN" "http://www.w3.org/Graphics/SVG/1.1/DTD/svg11.dtd">
<svg version="1.1" xmlns="http://www.w3.org/2000/svg" xmlns:xlink="http://www.w3.org/1999/xlink" preserveAspectRatio="xMidYMid meet" viewBox="0 0 640 195" width="640" height="195"><defs><path d="M84.22 153.28C84.22 146.32 84.22 90.67 84.22 83.71C106.59 80.67 123.88 61.47 123.88 38.29C123.88 35.15 123.88 9.98 123.88 6.83C123.88 3.4 121.1 0.61 117.66 0.61C117.66 0.61 117.66 0.61 117.66 0.61C115.68 0.61 99.81 0.61 97.83 0.61C94.4 0.61 91.61 3.4 91.61 6.83C91.61 10.26 94.4 13.05 97.83 13.05C97.83 13.05 97.83 13.05 97.83 13.05C98.74 13.05 103.28 13.05 111.44 13.05C111.44 28.19 111.44 36.61 111.44 38.29C111.44 56.76 96.47 71.73 78 71.73C59.53 71.73 44.56 56.76 44.56 38.29C44.56 36.61 44.56 28.19 44.56 13.05C52.72 13.05 57.26 13.05 58.17 13.05C61.6 13.05 64.38 10.26 64.38 6.83C64.38 3.4 61.6 0.61 58.17 0.61C58.17 0.61 58.17 0.61 58.17 0.61C56.18 0.61 40.32 0.61 38.34 0.61C34.9 0.61 32.12 3.39 32.12 6.83C32.12 9.98 32.12 35.15 32.12 38.29C32.12 61.47 49.41 80.67 71.78 83.71C71.78 90.67 71.78 146.32 71.78 153.28C71.76 169.18 58.86 182.07 42.95 182.09C32.52 182.09 13.93 175.22 13.93 153.74C13.93 134.88 30.39 125.39 42.95 125.39C42.95 124.6 42.95 113.67 42.95 112.96C22.06 112.96 1.3 128.64 1.3 153.38C1.3 180.71 23.6 194.52 42.95 194.52C65.73 194.5 84.19 176.05 84.22 153.28ZM619.47 113.09L619.47 125.32L42.84 125.32L42.84 113.09L619.47 113.09ZM640.3 119.51C640.26 130.73 631.13 139.79 619.91 139.76C608.71 139.72 599.65 130.63 599.65 119.44C599.67 108.2 608.8 99.1 620.04 99.12C631.27 99.16 640.33 108.28 640.3 119.51ZM225.49 94.63C225.49 74.93 225.49 63.99 225.49 61.8C225.49 50.39 223.68 44.83 223.48 42.94C221.46 35.49 217.57 32.27 216.91 31.08C212.37 26.68 206.21 25.54 205.02 24.93C197.67 23.18 188.87 23.35 187.08 23.17C176.24 23.17 170.66 24.15 168.83 24.26C161.43 25.35 158.08 27.38 156.88 27.73C152.34 30.12 151.03 33.3 150.38 33.92C149.08 36.45 148.42 39.55 148.42 43.21C155.36 43.21 159.21 43.21 159.98 43.21C159.98 39.95 161.12 38.46 161.25 37.93C162.51 35.91 165.15 35.08 165.58 34.76C168.65 33.62 173.06 33.38 173.89 33.22C179.13 32.83 185.76 32.87 187.08 32.83C192.19 32.83 195.26 33.08 196.17 33.1C198.53 33.23 200.86 33.65 203.12 34.34C204.99 34.91 206.71 35.89 208.15 37.21C209.63 38.64 210.77 40.38 211.49 42.31C212.46 44.87 213.09 47.55 213.36 50.27C213.78 54.1 213.97 57.95 213.93 61.8C213.19 60.92 212.32 60.17 211.34 59.57C209.54 58.36 206.55 57.53 206.02 57.3C203.05 56.48 200.02 55.89 196.95 55.55C192.38 55.04 187.77 54.81 183.17 54.86C177.38 54.86 173.36 55.02 172.27 55.04C169.11 55.14 165.96 55.44 162.84 55.95C160.21 56.36 157.64 57.07 155.17 58.06C153 58.93 151.04 60.24 149.42 61.92C147.77 63.67 146.54 65.76 145.8 68.05C144.57 71.7 144.69 76.06 144.57 76.95C144.57 81.96 146.6 84.72 146.83 85.58C149.08 89.2 153.25 90.93 153.96 91.53C158.84 93.85 165.29 94.62 166.55 94.96C174.25 96.08 183.29 95.97 185.15 96.08C193.34 96.08 197.05 95.24 198.37 95.15C203.4 94.21 205.6 92.81 206.41 92.55C208.24 91.59 209.87 90.29 211.22 88.72C212.91 86.79 213.81 85.58 213.93 85.1L213.93 94.63L225.49 94.63ZM161.49 84.28C158.24 83.03 157.61 81.15 157.18 80.8C156.13 78.57 156.23 75.57 156.13 74.99C156.13 71.42 157.02 69.9 157.12 69.34C158.12 67.26 160.62 66.5 161.01 66.18C163.9 65.11 168.4 64.95 169.23 64.82C174.55 64.52 181.82 64.55 183.22 64.52C191.89 64.52 196.34 65.03 197.8 65.08C203.7 65.65 206.33 66.72 207.28 66.9C210.86 68.15 211.89 69.82 212.4 70.14C213.44 71.54 213.98 73.25 213.93 75C213.97 76.75 213.51 78.49 212.61 80C211.28 82.14 208.6 83.21 208.15 83.57C205.02 84.99 200.7 85.5 199.87 85.71C195.63 86.24 191.35 86.47 187.08 86.43C180.34 86.42 174.93 86.28 170.85 85.98C165.23 84.96 162.11 84.4 161.49 84.28ZM262.46 61.71C259.88 61.33 257.37 60.61 254.99 59.57C253.13 58.74 251.51 57.47 250.26 55.86C249.03 54.15 248.19 52.19 247.79 50.12C247.3 47.69 247.05 45.21 247.07 42.73C247.07 37.3 249.13 34.5 249.36 33.59C251.65 29.87 255.97 28.15 256.7 27.55C261.76 25.23 268.52 24.54 269.83 24.2C277.9 23.17 287.5 23.28 289.46 23.17C300.9 23.17 306.45 24.26 308.34 24.38C315.78 25.59 318.96 27.72 320.14 28.09C324.5 30.6 325.64 33.77 326.25 34.4C327.41 36.93 327.99 39.95 328 43.45C321.06 43.45 317.21 43.45 316.44 43.45C316.44 40.19 315.33 38.67 315.2 38.14C313.97 36.09 311.33 35.24 310.9 34.91C307.83 33.73 303.45 33.45 302.62 33.28C297.41 32.83 290.78 32.88 289.46 32.83C280.79 32.83 276.35 33.05 274.89 33.07C268.99 33.31 266.33 34.16 265.38 34.28C261.76 35.24 260.72 36.94 260.2 37.24C258.63 39.23 258.79 42.18 258.63 42.73C258.63 44.07 258.72 45.41 258.9 46.74C259.03 47.91 259.45 49.02 260.14 49.97C260.87 50.88 261.86 51.55 262.97 51.9C264.62 52.43 266.33 52.76 268.06 52.9C271.28 53.23 275.24 53.22 276.04 53.26C280.8 53.29 286.39 53.29 287.54 53.29C295.72 53.29 300.46 53.62 301.9 53.65C305.48 53.83 309.06 54.25 312.59 54.92C317.1 55.83 319.3 57.42 320.05 57.7C321.84 58.79 323.43 60.16 324.78 61.77C325.99 63.29 326.84 65.07 327.28 66.96C327.79 69.23 328.03 71.55 328 73.87C328.03 76.23 327.78 78.59 327.28 80.9C326.83 82.89 325.97 84.76 324.75 86.39C323.42 88.09 321.74 89.49 319.84 90.5C317.38 91.79 314.76 92.72 312.04 93.27C308.34 94.06 304.59 94.59 300.81 94.85C294.28 95.35 287.13 95.31 285.61 95.36C274.77 95.36 269.22 94.38 267.4 94.27C260.02 93.19 256.69 91.15 255.5 90.8C250.99 88.42 249.68 85.23 249.03 84.61C247.73 82.08 247.07 78.98 247.07 75.32C254.01 75.32 257.86 75.32 258.63 75.32C258.63 78.94 259.74 80.62 259.87 81.2C261.1 83.47 263.74 84.38 264.17 84.73C267.24 86 271.62 86.28 272.45 86.45C277.66 86.91 284.29 86.86 285.61 86.91C292.83 86.91 296.69 86.61 297.92 86.58C300.78 86.42 303.63 86.07 306.44 85.52C308.31 85.17 310.14 84.58 311.86 83.77C313.05 83.2 314.08 82.35 314.87 81.29C315.55 80.33 315.99 79.23 316.16 78.07C316.35 76.76 316.45 75.44 316.44 74.11C316.45 72.93 316.36 71.75 316.16 70.58C315.95 69.49 315.54 68.44 314.93 67.51C314.25 66.45 313.26 65.64 312.1 65.18C310.46 64.56 308.75 64.12 307.01 63.88C304.37 63.5 301.7 63.25 299.03 63.16C294.27 62.95 288.68 62.97 287.53 62.95C282.07 62.95 277.28 62.87 273.14 62.71C268.38 62.41 264.81 62.08 262.46 61.71ZM430.56 55.4C430.56 50.21 430.18 46.74 430.14 45.78C429.91 43.04 429.33 40.34 428.42 37.75C427.61 35.44 426.37 33.3 424.78 31.44C423.04 29.51 420.92 27.95 418.55 26.89C415.54 25.53 412.36 24.6 409.1 24.11C404.7 23.44 400.26 23.12 395.82 23.17C392.99 23.17 390.26 23.34 389.65 23.36C386.3 23.54 383.52 23.95 382.84 24.02C380.54 24.34 378.26 24.79 376.01 25.38C373.84 25.93 371.73 26.71 369.72 27.7C367.84 28.62 366.11 29.79 364.57 31.2C363.09 32.57 361.92 34.23 361.14 36.09C361.14 33.81 361.14 22.43 361.14 1.93L349.58 1.93L349.58 94.63L361.14 94.63C361.14 68.78 361.14 54.41 361.14 51.54C361.1 48.93 361.54 46.33 362.43 43.88C363.72 40.44 366.69 38.58 367.16 37.99C370.59 35.55 375.64 34.57 376.58 34.19C382.57 32.83 390.43 32.97 391.97 32.83C400.64 32.83 404.54 33.89 405.94 34.01C411.24 35.19 413.31 37.46 414.12 37.84C416.1 39.71 417.45 42.14 417.98 44.81C418.62 47.69 418.94 51.22 418.94 55.4L418.94 94.63L430.5 94.63C430.54 71.1 430.56 58.02 430.56 55.4ZM508.02 25.11L475.26 25.11C475.26 24.74 475.26 24.54 475.26 24.5C475.26 18.95 476.13 16.79 476.23 15.93C477.19 12.91 479.13 11.97 479.45 11.53C481.7 10.14 484.79 10.06 485.38 9.9C487.83 9.73 490.88 9.65 494.53 9.65L508.02 9.65L508.02 0C499.96 0 495.49 0 494.59 0C485.92 0 481.45 1.06 479.99 1.18C474.05 2.36 471.4 4.79 470.45 5.19C468 7.13 466.2 9.76 465.27 12.74C464.22 15.87 463.7 19.8 463.7 24.5L463.7 25.11L452.14 25.11L452.14 34.76L463.7 34.76L463.7 94.63L475.26 94.63L475.26 34.76L508.02 34.76L508.02 25.11ZM537.3 94.63L537.3 25.11L525.74 25.11L525.74 94.63L537.3 94.63ZM525.74 1.93L525.74 13.52L537.3 13.52L537.3 1.93L525.74 1.93ZM578.15 94.63L578.15 25.11L566.59 25.11L566.59 94.63L578.15 94.63ZM566.59 1.93L566.59 13.52L578.15 13.52L578.15 1.93L566.59 1.93Z" id="a9r1ilE1c"></path></defs><g><g><g><use xlink:href="#a9r1ilE1c" opacity="1" fill="#ffffff" fill-opacity="1"></use><g><use xlink:href="#a9r1ilE1c" opacity="1" fill-opacity="0" stroke="#000000" stroke-width="1" stroke-opacity="0"></use></g></g></g></g></svg>